{
  "accessors": [
    {
      "bufferView": 2,
      "componentType": 5126,
      "count": 34043,
      "max": [
        2814.9609375,
        2460.62939453125,
        122.04721069335938
      ],
      "min": [
        2.9296874345163815e-05,
        -325.3269958496094,
        -3.9370079040527344
      ],
      "type": "VEC3"
    },
    {
      "bufferView": 0,
      "componentType": 5125,
      "count": 78396,
      "type": "SCALAR"
    },
    {
      "bufferView": 2,
      "byteOffset": 408516,
      "componentType": 5126,
      "count": 2,
      "max": [
        944.8818359375,
        2070.866455078125,
        -7.432277016050648e-12
      ],
      "min": [
        944.8818359375,
        2055.118408203125,
        -7.432277016050648e-12
      ],
      "type": "VEC3"
    },
    {
      "bufferView": 0,
      "byteOffset": 313584,
      "componentType": 5125,
      "count": 2,
      "type": "SCALAR"
    },
    {
      "bufferView": 2,
      "byteOffset": 408540,
      "componentType": 5126,
      "count": 65532,
      "max": [
        2814.9609375,
        2460.62939453125,
        122.04721069335938
      ],
      "min": [
        38.63666915893555,
        -325.3269958496094,
        -3.9370079040527344
      ],
      "type": "VEC3"
    },
    {
      "bufferView": 2,
      "byteOffset": 1194924,
      "componentType": 5126,
      "count": 65532,
      "max": [
        1.0,
        1.0,
        1.0
      ],
      "min": [
        -1.0,
        -1.0,
        -1.0
      ],
      "type": "VEC3"
    },
    {
      "bufferView": 1,
      "componentType": 5126,
      "count": 65532,
      "max": [
        0.0,
        0.0
      ],
      "min": [
        0.0,
        0.0
      ],
      "type": "VEC2"
    },
    {
      "bufferView": 0,
      "byteOffset": 313592,
      "componentType": 5125,
      "count": 164457,
      "type": "SCALAR"
    },
    {
      "bufferView": 2,
      "byteOffset": 1981308,
      "componentType": 5126,
      "count": 12420,
      "max": [
        2716.53564453125,
        2045.240234375,
        122.04721069335938
      ],
      "min": [
        253.83360290527344,
        -15.470309257507324,
        -7.531752999057062e-12
      ],
      "type": "VEC3"
    },
    {
      "bufferView": 2,
      "byteOffset": 2130348,
      "componentType": 5126,
      "count": 12420,
      "max": [
        1.0,
        1.0,
        1.0
      ],
      "min": [
        -1.0,
        -1.0,
        -1.0
      ],
      "type": "VEC3"
    },
    {
      "bufferView": 1,
      "byteOffset": 524256,
      "componentType": 5126,
      "count": 12420,
      "max": [
        0.0,
        0.0
      ],
      "min": [
        0.0,
        0.0
      ],
      "type": "VEC2"
    },
    {
      "bufferView": 0,
      "byteOffset": 971420,
      "componentType": 5125,
      "count": 31038,
      "type": "SCALAR"
    },
    {
      "bufferView": 2,
      "byteOffset": 2279388,
      "componentType": 5126,
      "count": 8,
      "max": [
        2381.889404296875,
        2125.984375,
        -7.432277016050648e-12
      ],
      "min": [
        1673.22802734375,
        688.9763793945313,
        -7.545963853772264e-12
      ],
      "type": "VEC3"
    },
    {
      "bufferView": 2,
      "byteOffset": 2279484,
      "componentType": 5126,
      "count": 8,
      "max": [
        -6.767809792174111e-17,
        7.017288788409084e-17,
        1.0
      ],
      "min": [
        -6.767809792174111e-17,
        7.017288788409084e-17,
        1.0
      ],
      "type": "VEC3"
    },
    {
      "bufferView": 1,
      "byteOffset": 623616,
      "componentType": 5126,
      "count": 8,
      "max": [
        68.0,
        97.0
      ],
      "min": [
        32.0,
        24.0
      ],
      "type": "VEC2"
    },
    {
      "bufferView": 0,
      "byteOffset": 1095572,
      "componentType": 5125,
      "count": 18,
      "type": "SCALAR"
    },
    {
      "bufferView": 2,
      "byteOffset": 2279580,
      "componentType": 5126,
      "count": 54,
      "max": [
        2814.9599609375,
        2224.40966796875,
        -2.915125357834945e-19
      ],
      "min": [
        2.9296874345163815e-05,
        -5.66406242796802e-06,
        -8.697043085703626e-12
      ],
      "type": "VEC3"
    },
    {
      "bufferView": 2,
      "byteOffset": 2280228,
      "componentType": 5126,
      "count": 54,
      "max": [
        7.060201198052661e-16,
        1.6515729646972616e-17,
        1.0
      ],
      "min": [
        7.060201198052661e-16,
        1.6515729646972616e-17,
        1.0
      ],
      "type": "VEC3"
    },
    {
      "bufferView": 1,
      "byteOffset": 623680,
      "componentType": 5126,
      "count": 54,
      "max": [
        45.0,
        51.0
      ],
      "min": [
        -26.5,
        -5.5
      ],
      "type": "VEC2"
    },
    {
      "bufferView": 0,
      "byteOffset": 1095644,
      "componentType": 5125,
      "count": 174,
      "type": "SCALAR"
    },
    {
      "bufferView": 2,
      "byteOffset": 2280876,
      "componentType": 5126,
      "count": 4,
      "max": [
        1574.80322265625,
        905.5117797851563,
        -7.432277016050648e-12
      ],
      "min": [
        984.2520141601563,
        767.7164916992188,
        -7.489120434911456e-12
      ],
      "type": "VEC3"
    },
    {
      "bufferView": 0,
      "byteOffset": 1096340,
      "componentType": 5125,
      "count": 8,
      "type": "SCALAR"
    },
    {
      "bufferView": 2,
      "byteOffset": 2280924,
      "componentType": 5126,
      "count": 8,
      "max": [
        1574.80322265625,
        905.5117797851563,
        -7.432277016050648e-12
      ],
      "min": [
        984.2520141601563,
        767.7164916992188,
        -7.489120434911456e-12
      ],
      "type": "VEC3"
    },
    {
      "bufferView": 2,
      "byteOffset": 2281020,
      "componentType": 5126,
      "count": 8,
      "max": [
        2.634436021800338e-33,
        4.1252079483170727e-16,
        1.0
      ],
      "min": [
        -2.634436021800338e-33,
        -4.1252079483170727e-16,
        -1.0
      ],
      "type": "VEC3"
    },
    {
      "bufferView": 1,
      "byteOffset": 624112,
      "componentType": 5126,
      "count": 8,
      "max": [
        30.0,
        7.0
      ],
      "min": [
        0.0,
        -0.0
      ],
      "type": "VEC2"
    },
    {
      "bufferView": 0,
      "byteOffset": 1096372,
      "componentType": 5125,
      "count": 12,
      "type": "SCALAR"
    },
    {
      "bufferView": 2,
      "byteOffset": 2281116,
      "componentType": 5126,
      "count": 270,
      "max": [
        2401.5751953125,
        2263.780029296875,
        44.29133987426758
      ],
      "min": [
        49.21260070800781,
        -277.1653747558594,
        -7.699912756009564e-12
      ],
      "type": "VEC3"
    },
    {
      "bufferView": 2,
      "byteOffset": 2284356,
      "componentType": 5126,
      "count": 270,
      "max": [
        1.0,
        1.0,
        1.0
      ],
      "min": [
        -1.0,
        -1.0,
        -1.0
      ],
      "type": "VEC3"
    },
    {
      "bufferView": 0,
      "byteOffset": 1096420,
      "componentType": 5125,
      "count": 408,
      "type": "SCALAR"
    },
    {
      "bufferView": 2,
      "byteOffset": 2287596,
      "componentType": 5126,
      "count": 150,
      "max": [
        2401.5751953125,
        2263.780029296875,
        44.29133987426758
      ],
      "min": [
        49.21260070800781,
        -277.1653747558594,
        -7.545963853772264e-12
      ],
      "type": "VEC3"
    },
    {
      "bufferView": 2,
      "byteOffset": 2289396,
      "componentType": 5126,
      "count": 150,
      "max": [
        1.0,
        1.0,
        1.0
      ],
      "min": [
        -1.0,
        -1.0,
        -1.0
      ],
      "type": "VEC3"
    },
    {
      "bufferView": 0,
      "byteOffset": 1098052,
      "componentType": 5125,
      "count": 210,
      "type": "SCALAR"
    },
    {
      "bufferView": 2,
      "byteOffset": 2291196,
      "componentType": 5126,
      "count": 34,
      "max": [
        2401.5751953125,
        118.11029052734375,
        44.29133987426758
      ],
      "min": [
        1031.495849609375,
        -277.1653747558594,
        -7.699912756009564e-12
      ],
      "type": "VEC3"
    },
    {
      "bufferView": 0,
      "byteOffset": 1098892,
      "componentType": 5125,
      "count": 102,
      "type": "SCALAR"
    }
  ],
  "asset": {
    "extras": {
      "author": "sambhavi.tripathi (https://sketchfab.com/sambhavi.tripathi)",
      "license": "CC-BY-4.0 (http://creativecommons.org/licenses/by/4.0/)",
      "source": "https://sketchfab.com/3d-models/first-floor-comm-e9bb9747d92445e5968bebefdc2ca726",
      "title": "First-floor-comm"
    },
    "generator": "Sketchfab-15.16.0",
    "version": "2.0"
  },
  "bufferViews": [
    {
      "buffer": 0,
      "byteLength": 1099300,
      "name": "floatBufferViews",
      "target": 34963
    },
    {
      "buffer": 0,
      "byteLength": 624176,
      "byteOffset": 1099300,
      "byteStride": 8,
      "name": "floatBufferViews",
      "target": 34962
    },
    {
      "buffer": 0,
      "byteLength": 2291604,
      "byteOffset": 1723476,
      "byteStride": 12,
      "name": "floatBufferViews",
      "target": 34962
    }
  ],
  "buffers": [
    {
      "byteLength": 4015080,
      "uri": "scene.bin"
    }
  ],
  "images": [
    {
      "uri": "textures/material_2_baseColor.png"
    },
    {
      "uri": "textures/material_3_baseColor.png"
    },
    {
      "uri": "textures/material_5_baseColor.png"
    }
  ],
  "materials": [
    {
      "name": "material_0",
      "pbrMetallicRoughness": {
        "baseColorFactor": [
          0.0,
          0.0,
          0.0,
          1.0
        ],
        "metallicFactor": 0.0,
        "roughnessFactor": 0.6
      }
    },
    {
      "name": "material_1",
      "pbrMetallicRoughness": {
        "metallicFactor": 0.0,
        "roughnessFactor": 0.6
      }
    },
    {
      "name": "material_2",
      "pbrMetallicRoughness": {
        "baseColorTexture": {
          "index": 0
        },
        "metallicFactor": 0.0,
        "roughnessFactor": 0.6
      }
    },
    {
      "name": "material_3",
      "pbrMetallicRoughness": {
        "baseColorTexture": {
          "index": 1
        },
        "metallicFactor": 0.0,
        "roughnessFactor": 0.6
      }
    },
    {
      "name": "material_4",
      "pbrMetallicRoughness": {
        "metallicFactor": 0.0,
        "roughnessFactor": 0.6
      }
    },
    {
      "name": "material_5",
      "pbrMetallicRoughness": {
        "baseColorTexture": {
          "index": 2
        },
        "metallicFactor": 0.0,
        "roughnessFactor": 0.6
      }
    },
    {
      "name": "material_6",
      "pbrMetallicRoughness": {
        "baseColorFactor": [
          0.337255,
          0.337255,
          0.337255,
          1.0
        ],
        "metallicFactor": 0.0,
        "roughnessFactor": 0.6
      }
    },
    {
      "name": "material_7",
      "pbrMetallicRoughness": {
        "baseColorFactor": [
          0.0,
          0.0,
          0.0,
          1.0
        ],
        "metallicFactor": 0.0,
        "roughnessFactor": 0.6
      }
    },
    {
      "name": "material_8",
      "pbrMetallicRoughness": {
        "metallicFactor": 0.0,
        "roughnessFactor": 0.6
      }
    }
  ],
  "meshes": [
    {
      "name": "Object_0",
      "primitives": [
        {
          "attributes": {
            "POSITION": 0
          },
          "indices": 1,
          "material": 0,
          "mode": 1
        }
      ]
    },
    {
      "name": "Object_1",
      "primitives": [
        {
          "attributes": {
            "POSITION": 2
          },
          "indices": 3,
          "material": 0,
          "mode": 1
        }
      ]
    },
    {
      "name": "Object_2",
      "primitives": [
        {
          "attributes": {
            "NORMAL": 5,
            "POSITION": 4,
            "TEXCOORD_0": 6
          },
          "indices": 7,
          "material": 1,
          "mode": 4
        }
      ]
    },
    {
      "name": "Object_3",
      "primitives": [
        {
          "attributes": {
            "NORMAL": 9,
            "POSITION": 8,
            "TEXCOORD_0": 10
          },
          "indices": 11,
          "material": 1,
          "mode": 4
        }
      ]
    },
    {
      "name": "Object_4",
      "primitives": [
        {
          "attributes": {
            "NORMAL": 13,
            "POSITION": 12,
            "TEXCOORD_0": 14
          },
          "indices": 15,
          "material": 2,
          "mode": 4
        }
      ]
    },
    {
      "name": "Object_5",
      "primitives": [
        {
          "attributes": {
            "NORMAL": 17,
            "POSITION": 16,
            "TEXCOORD_0": 18
          },
          "indices": 19,
          "material": 3,
          "mode": 4
        }
      ]
    },
    {
      "name": "Object_6",
      "primitives": [
        {
          "attributes": {
            "POSITION": 20
          },
          "indices": 21,
          "material": 4,
          "mode": 1
        }
      ]
    },
    {
      "name": "Object_7",
      "primitives": [
        {
          "attributes": {
            "NORMAL": 23,
            "POSITION": 22,
            "TEXCOORD_0": 24
          },
          "indices": 25,
          "material": 5,
          "mode": 4
        }
      ]
    },
    {
      "name": "Object_8",
      "primitives": [
        {
          "attributes": {
            "NORMAL": 27,
            "POSITION": 26
          },
          "indices": 28,
          "material": 6,
          "mode": 4
        }
      ]
    },
    {
      "name": "Object_9",
      "primitives": [
        {
          "attributes": {
            "NORMAL": 30,
            "POSITION": 29
          },
          "indices": 31,
          "material": 7,
          "mode": 4
        }
      ]
    },
    {
      "name": "Object_10",
      "primitives": [
        {
          "attributes": {
            "POSITION": 32
          },
          "indices": 33,
          "material": 8,
          "mode": 1
        }
      ]
    }
  ],
  "nodes": [
    {
      "children": [
        1
      ],
      "matrix": [
        1.0,
        0.0,
        0.0,
        0.0,
        0.0,
        2.220446049250313e-16,
        -1.0,
        0.0,
        0.0,
        1.0,
        2.220446049250313e-16,
        0.0,
        0.0,
        0.0,
        0.0,
        1.0
      ],
      "name": "Sketchfab_model"
    },
    {
      "children": [
        2
      ],
      "name": "root"
    },
    {
      "children": [
        3
      ],
      "matrix": [
        1.0,
        0.0,
        0.0,
        0.0,
        0.0,
        2.220446049250313e-16,
        1.0,
        0.0,
        0.0,
        -1.0,
        2.220446049250313e-16,
        0.0,
        0.0,
        0.0,
        0.0,
        1.0
      ],
      "name": "GLTF_SceneRootNode"
    },
    {
      "children": [
        4
      ],
      "matrix": [
        1.0,
        -0.0,
        0.0,
        0.0,
        0.0,
        0.0,
        -1.0,
        0.0,
        0.0,
        1.0,
        0.0,
        0.0,
        0.0,
        0.0,
        0.0,
        1.0
      ],
      "name": "Sketchfab_model_0"
    },
    {
      "children": [
        5,
        7,
        9,
        11,
        13,
        15,
        17,
        19,
        21,
        23,
        25
      ],
      "name": "Collada visual scene group_1"
    },
    {
      "children": [
        6
      ],
      "name": "Material3_2"
    },
    {
      "mesh": 0,
      "name": "Object_6"
    },
    {
      "children": [
        8
      ],
      "name": "Material2_3"
    },
    {
      "mesh": 1,
      "name": "Object_8"
    },
    {
      "children": [
        10
      ],
      "name": "Material2_4"
    },
    {
      "mesh": 2,
      "name": "Object_10"
    },
    {
      "children": [
        12
      ],
      "name": "Material2_5"
    },
    {
      "mesh": 3,
      "name": "Object_12"
    },
    {
      "children": [
        14
      ],
      "name": "Material2_6"
    },
    {
      "mesh": 4,
      "name": "Object_14"
    },
    {
      "children": [
        16
      ],
      "name": "Material2_7"
    },
    {
      "mesh": 5,
      "name": "Object_16"
    },
    {
      "children": [
        18
      ],
      "name": "Material3_8"
    },
    {
      "mesh": 6,
      "name": "Object_18"
    },
    {
      "children": [
        20
      ],
      "name": "Material2_9"
    },
    {
      "mesh": 7,
      "name": "Object_20"
    },
    {
      "children": [
        22
      ],
      "name": "Material2_10"
    },
    {
      "mesh": 8,
      "name": "Object_22"
    },
    {
      "children": [
        24
      ],
      "name": "Material3_11"
    },
    {
      "mesh": 9,
      "name": "Object_24"
    },
    {
      "children": [
        26
      ],
      "name": "Material3_12"
    },
    {
      "mesh": 10,
      "name": "Object_26"
    }
  ],
  "samplers": [
    {
      "magFilter": 9729,
      "minFilter": 9987,
      "wrapS": 10497,
      "wrapT": 10497
    }
  ],
  "scene": 0,
  "scenes": [
    {
      "name": "Sketchfab_Scene",
      "nodes": [
        0
      ]
    }
  ],
  "textures": [
    {
      "sampler": 0,
      "source": 0
    },
    {
      "sampler": 0,
      "source": 1
    },
    {
      "sampler": 0,
      "source": 2
    }
  ]
}
